<?xml version="1.0" encoding="UTF-8" standalone="no"?>
<!-- Created with Inkscape (http://www.inkscape.org/) -->

<svg
   width="210mm"
   height="297mm"
   viewBox="0 0 210 297"
   version="1.1"
   id="svg1"
   xml:space="preserve"
   xmlns="http://www.w3.org/2000/svg"
   xmlns:svg="http://www.w3.org/2000/svg"><defs
     id="defs1"><rect
       x="994.98584"
       y="1518.0175"
       width="710.99603"
       height="263.5589"
       id="rect30" /><clipPath
       clipPathUnits="userSpaceOnUse"
       id="clipPath23-6"><path
         style="fill:#ff00ff;stroke:#000000;stroke-width:0;stroke-dasharray:none;paint-order:stroke fill markers"
         d="m 46.776545,243.19981 c 0,0 8.791506,-10.31068 8.695946,-10.31068 h -0.09556 l -4.682432,-6.46008 -5.28678,-3.96573 -1.49797,0.66892 -6.64141,8.93485 1.212271,2.10917 3.231261,2.52548 2.866798,5.30357 z"
         id="path24-3" /></clipPath><clipPath
       clipPathUnits="userSpaceOnUse"
       id="clipPath23-8"><path
         style="fill:#ff00ff;stroke:#000000;stroke-width:0;stroke-dasharray:none;paint-order:stroke fill markers"
         d="m 46.776545,243.19981 c 0,0 8.791506,-10.31068 8.695946,-10.31068 h -0.09556 l -4.682432,-6.46008 -5.28678,-3.96573 -1.49797,0.66892 -6.64141,8.93485 1.212271,2.10917 3.231261,2.52548 2.866798,5.30357 z"
         id="path24-2" /></clipPath><clipPath
       clipPathUnits="userSpaceOnUse"
       id="clipPath23-8-5"><path
         style="fill:#ff00ff;stroke:#000000;stroke-width:0;stroke-dasharray:none;paint-order:stroke fill markers"
         d="m 46.776545,243.19981 c 0,0 8.791506,-10.31068 8.695946,-10.31068 h -0.09556 l -4.682432,-6.46008 -5.28678,-3.96573 -1.49797,0.66892 -6.64141,8.93485 1.212271,2.10917 3.231261,2.52548 2.866798,5.30357 z"
         id="path24-2-8" /></clipPath><clipPath
       clipPathUnits="userSpaceOnUse"
       id="clipPath23-8-6"><path
         style="fill:#ff00ff;stroke:#000000;stroke-width:0;stroke-dasharray:none;paint-order:stroke fill markers"
         d="m 46.776545,243.19981 c 0,0 8.791506,-10.31068 8.695946,-10.31068 h -0.09556 l -4.682432,-6.46008 -5.28678,-3.96573 -1.49797,0.66892 -6.64141,8.93485 1.212271,2.10917 3.231261,2.52548 2.866798,5.30357 z"
         id="path24-2-4" /></clipPath><clipPath
       clipPathUnits="userSpaceOnUse"
       id="clipPath23-8-55-8"><path
         style="fill:#ff00ff;stroke:#000000;stroke-width:0;stroke-dasharray:none;paint-order:stroke fill markers"
         d="m 46.776545,243.19981 c 0,0 8.791506,-10.31068 8.695946,-10.31068 h -0.09556 l -4.682432,-6.46008 -5.28678,-3.96573 -1.49797,0.66892 -6.64141,8.93485 1.212271,2.10917 3.231261,2.52548 2.866798,5.30357 z"
         id="path24-2-7-2" /></clipPath></defs><text
     xml:space="preserve"
     style="font-size:25.4px;font-family:Arial;-inkscape-font-specification:Arial;letter-spacing:0px;writing-mode:lr-tb;direction:rtl;fill:#057897;stroke:#000000;stroke-width:6;stroke-dasharray:none;paint-order:stroke fill markers"
     x="179.12988"
     y="66.891884"
     id="text1"><tspan
       style="letter-spacing:0px;writing-mode:lr-tb;stroke-width:6;stroke-dasharray:none"
       x="179.12988"
       y="66.891884"
       id="tspan2"><tspan
   id="tspan4"
   style="font-size:38.8056px;letter-spacing:5.37104px;fill:#0584a5;fill-opacity:1;stroke-width:6;stroke-dasharray:none">АРЕНА</tspan> </tspan><tspan
       style="letter-spacing:3.5904px;word-spacing:0px;writing-mode:lr-tb;stroke-width:6;stroke-dasharray:none"
       x="182.72029"
       y="103.32373"
       id="tspan3"
       dy="0"
       dx="0"
       rotate="0 0 0 0 0 0 0 0 0">ТОП-СПИН</tspan></text><text
     xml:space="preserve"
     style="font-size:25.4px;font-family:Arial;-inkscape-font-specification:Arial;letter-spacing:0px;writing-mode:lr-tb;direction:rtl;fill:#057897;stroke:#000000;stroke-width:5.1;stroke-dasharray:none;paint-order:stroke fill markers"
     x="801.38617"
     y="257.7081"
     id="text1-3"><tspan
       style="letter-spacing:0px;writing-mode:lr-tb;stroke-width:5.1;stroke-dasharray:none"
       x="801.38617"
       y="257.7081"
       id="tspan2-9"><tspan
   id="tspan4-6"
   style="font-size:38.8056px;stroke-width:5.1;stroke-dasharray:none">АРЕНА</tspan> </tspan><tspan
       style="letter-spacing:0px;writing-mode:lr-tb;stroke-width:5.1;stroke-dasharray:none"
       x="801.38617"
       y="294.13995"
       id="tspan3-9">ТОП-СПИН</tspan></text></svg>
